<?xml version="1.0" encoding="UTF-8"?>
<!DOCTYPE svg PUBLIC "-//W3C//DTD SVG 1.1//EN"
    "http://www.w3.org/Graphics/SVG/1.1/DTD/svg11.dtd"><svg xmlns="http://www.w3.org/2000/svg" height="500.0000" stroke-opacity="1" viewBox="0 0 500 500" font-size="1" width="500.0000" xmlns:xlink="http://www.w3.org/1999/xlink" stroke="rgb(0,0,0)" version="1.1"><defs></defs><g stroke-linejoin="miter" stroke-opacity="1.0" fill-opacity="1.0" stroke="rgb(0,0,0)" stroke-width="0.7499999999999998" fill="rgb(255,255,255)" stroke-linecap="butt" stroke-miterlimit="10.0"><path d="M 500.0000,230.4688 c 0.0000,-1.4382 -1.1659,-2.6042 -2.6042 -2.6042c -1.4382,-0.0000 -2.6042,1.1659 -2.6042 2.6042c -0.0000,1.4382 1.1659,2.6042 2.6042 2.6042c 1.4382,0.0000 2.6042,-1.1659 2.6042 -2.6042Z"/></g><g stroke-linejoin="miter" stroke-opacity="1.0" fill-opacity="1.0" stroke="rgb(0,0,0)" stroke-width="0.7499999999999998" fill="rgb(255,255,255)" stroke-linecap="butt" stroke-miterlimit="10.0"><path d="M 500.0000,269.5312 c 0.0000,-1.4382 -1.1659,-2.6042 -2.6042 -2.6042c -1.4382,-0.0000 -2.6042,1.1659 -2.6042 2.6042c -0.0000,1.4382 1.1659,2.6042 2.6042 2.6042c 1.4382,0.0000 2.6042,-1.1659 2.6042 -2.6042Z"/></g><g stroke-linejoin="miter" stroke-opacity="1.0" fill-opacity="1.0" stroke="rgb(0,0,0)" stroke-width="0.7499999999999998" fill="rgb(255,255,255)" stroke-linecap="butt" stroke-miterlimit="10.0"><path d="M 486.9792,217.4479 c 0.0000,-1.4382 -1.1659,-2.6042 -2.6042 -2.6042c -1.4382,-0.0000 -2.6042,1.1659 -2.6042 2.6042c -0.0000,1.4382 1.1659,2.6042 2.6042 2.6042c 1.4382,0.0000 2.6042,-1.1659 2.6042 -2.6042Z"/></g><g stroke-linejoin="miter" stroke-opacity="1.0" fill-opacity="1.0" stroke="rgb(0,0,0)" stroke-width="0.7499999999999998" fill="rgb(255,255,255)" stroke-linecap="butt" stroke-miterlimit="10.0"><path d="M 486.9792,282.5521 c 0.0000,-1.4382 -1.1659,-2.6042 -2.6042 -2.6042c -1.4382,-0.0000 -2.6042,1.1659 -2.6042 2.6042c -0.0000,1.4382 1.1659,2.6042 2.6042 2.6042c 1.4382,0.0000 2.6042,-1.1659 2.6042 -2.6042Z"/></g><g stroke-linejoin="miter" stroke-opacity="1.0" fill-opacity="1.0" stroke="rgb(0,0,0)" stroke-width="0.7499999999999998" fill="rgb(255,255,255)" stroke-linecap="butt" stroke-miterlimit="10.0"><path d="M 473.9583,217.4479 c 0.0000,-1.4382 -1.1659,-2.6042 -2.6042 -2.6042c -1.4382,-0.0000 -2.6042,1.1659 -2.6042 2.6042c -0.0000,1.4382 1.1659,2.6042 2.6042 2.6042c 1.4382,0.0000 2.6042,-1.1659 2.6042 -2.6042Z"/></g><g stroke-linejoin="miter" stroke-opacity="1.0" fill-opacity="1.0" stroke="rgb(0,0,0)" stroke-width="0.7499999999999998" fill="rgb(255,255,255)" stroke-linecap="butt" stroke-miterlimit="10.0"><path d="M 473.9583,282.5521 c 0.0000,-1.4382 -1.1659,-2.6042 -2.6042 -2.6042c -1.4382,-0.0000 -2.6042,1.1659 -2.6042 2.6042c -0.0000,1.4382 1.1659,2.6042 2.6042 2.6042c 1.4382,0.0000 2.6042,-1.1659 2.6042 -2.6042Z"/></g><g stroke-linejoin="miter" stroke-opacity="1.0" fill-opacity="1.0" stroke="rgb(0,0,0)" stroke-width="0.7499999999999998" fill="rgb(255,255,255)" stroke-linecap="butt" stroke-miterlimit="10.0"><path d="M 460.9375,230.4688 c 0.0000,-1.4382 -1.1659,-2.6042 -2.6042 -2.6042c -1.4382,-0.0000 -2.6042,1.1659 -2.6042 2.6042c -0.0000,1.4382 1.1659,2.6042 2.6042 2.6042c 1.4382,0.0000 2.6042,-1.1659 2.6042 -2.6042Z"/></g><g stroke-linejoin="miter" stroke-opacity="1.0" fill-opacity="1.0" stroke="rgb(0,0,0)" stroke-width="0.7499999999999998" fill="rgb(255,255,255)" stroke-linecap="butt" stroke-miterlimit="10.0"><path d="M 460.9375,243.4896 c 0.0000,-1.4382 -1.1659,-2.6042 -2.6042 -2.6042c -1.4382,-0.0000 -2.6042,1.1659 -2.6042 2.6042c -0.0000,1.4382 1.1659,2.6042 2.6042 2.6042c 1.4382,0.0000 2.6042,-1.1659 2.6042 -2.6042Z"/></g><g stroke-linejoin="miter" stroke-opacity="1.0" fill-opacity="1.0" stroke="rgb(0,0,0)" stroke-width="0.7499999999999998" fill="rgb(255,255,255)" stroke-linecap="butt" stroke-miterlimit="10.0"><path d="M 460.9375,256.5104 c 0.0000,-1.4382 -1.1659,-2.6042 -2.6042 -2.6042c -1.4382,-0.0000 -2.6042,1.1659 -2.6042 2.6042c -0.0000,1.4382 1.1659,2.6042 2.6042 2.6042c 1.4382,0.0000 2.6042,-1.1659 2.6042 -2.6042Z"/></g><g stroke-linejoin="miter" stroke-opacity="1.0" fill-opacity="1.0" stroke="rgb(0,0,0)" stroke-width="0.7499999999999998" fill="rgb(255,255,255)" stroke-linecap="butt" stroke-miterlimit="10.0"><path d="M 460.9375,269.5312 c 0.0000,-1.4382 -1.1659,-2.6042 -2.6042 -2.6042c -1.4382,-0.0000 -2.6042,1.1659 -2.6042 2.6042c -0.0000,1.4382 1.1659,2.6042 2.6042 2.6042c 1.4382,0.0000 2.6042,-1.1659 2.6042 -2.6042Z"/></g><g stroke-linejoin="miter" stroke-opacity="1.0" fill-opacity="1.0" stroke="rgb(0,0,0)" stroke-width="0.7499999999999998" fill="rgb(255,255,255)" stroke-linecap="butt" stroke-miterlimit="10.0"><path d="M 434.8958,230.4688 c 0.0000,-1.4382 -1.1659,-2.6042 -2.6042 -2.6042c -1.4382,-0.0000 -2.6042,1.1659 -2.6042 2.6042c -0.0000,1.4382 1.1659,2.6042 2.6042 2.6042c 1.4382,0.0000 2.6042,-1.1659 2.6042 -2.6042Z"/></g><g stroke-linejoin="miter" stroke-opacity="1.0" fill-opacity="1.0" stroke="rgb(0,0,0)" stroke-width="0.7499999999999998" fill="rgb(255,255,255)" stroke-linecap="butt" stroke-miterlimit="10.0"><path d="M 434.8958,243.4896 c 0.0000,-1.4382 -1.1659,-2.6042 -2.6042 -2.6042c -1.4382,-0.0000 -2.6042,1.1659 -2.6042 2.6042c -0.0000,1.4382 1.1659,2.6042 2.6042 2.6042c 1.4382,0.0000 2.6042,-1.1659 2.6042 -2.6042Z"/></g><g stroke-linejoin="miter" stroke-opacity="1.0" fill-opacity="1.0" stroke="rgb(0,0,0)" stroke-width="0.7499999999999998" fill="rgb(255,255,255)" stroke-linecap="butt" stroke-miterlimit="10.0"><path d="M 421.8750,217.4479 c 0.0000,-1.4382 -1.1659,-2.6042 -2.6042 -2.6042c -1.4382,-0.0000 -2.6042,1.1659 -2.6042 2.6042c -0.0000,1.4382 1.1659,2.6042 2.6042 2.6042c 1.4382,0.0000 2.6042,-1.1659 2.6042 -2.6042Z"/></g><g stroke-linejoin="miter" stroke-opacity="1.0" fill-opacity="1.0" stroke="rgb(0,0,0)" stroke-width="0.7499999999999998" fill="rgb(255,255,255)" stroke-linecap="butt" stroke-miterlimit="10.0"><path d="M 421.8750,256.5104 c 0.0000,-1.4382 -1.1659,-2.6042 -2.6042 -2.6042c -1.4382,-0.0000 -2.6042,1.1659 -2.6042 2.6042c -0.0000,1.4382 1.1659,2.6042 2.6042 2.6042c 1.4382,0.0000 2.6042,-1.1659 2.6042 -2.6042Z"/></g><g stroke-linejoin="miter" stroke-opacity="1.0" fill-opacity="1.0" stroke="rgb(0,0,0)" stroke-width="0.7499999999999998" fill="rgb(255,255,255)" stroke-linecap="butt" stroke-miterlimit="10.0"><path d="M 408.8542,217.4479 c 0.0000,-1.4382 -1.1659,-2.6042 -2.6042 -2.6042c -1.4382,-0.0000 -2.6042,1.1659 -2.6042 2.6042c -0.0000,1.4382 1.1659,2.6042 2.6042 2.6042c 1.4382,0.0000 2.6042,-1.1659 2.6042 -2.6042Z"/></g><g stroke-linejoin="miter" stroke-opacity="1.0" fill-opacity="1.0" stroke="rgb(0,0,0)" stroke-width="0.7499999999999998" fill="rgb(255,255,255)" stroke-linecap="butt" stroke-miterlimit="10.0"><path d="M 408.8542,256.5104 c 0.0000,-1.4382 -1.1659,-2.6042 -2.6042 -2.6042c -1.4382,-0.0000 -2.6042,1.1659 -2.6042 2.6042c -0.0000,1.4382 1.1659,2.6042 2.6042 2.6042c 1.4382,0.0000 2.6042,-1.1659 2.6042 -2.6042Z"/></g><g stroke-linejoin="miter" stroke-opacity="1.0" fill-opacity="1.0" stroke="rgb(0,0,0)" stroke-width="0.7499999999999998" fill="rgb(255,255,255)" stroke-linecap="butt" stroke-miterlimit="10.0"><path d="M 395.8333,217.4479 c 0.0000,-1.4382 -1.1659,-2.6042 -2.6042 -2.6042c -1.4382,-0.0000 -2.6042,1.1659 -2.6042 2.6042c -0.0000,1.4382 1.1659,2.6042 2.6042 2.6042c 1.4382,0.0000 2.6042,-1.1659 2.6042 -2.6042Z"/></g><g stroke-linejoin="miter" stroke-opacity="1.0" fill-opacity="1.0" stroke="rgb(0,0,0)" stroke-width="0.7499999999999998" fill="rgb(255,255,255)" stroke-linecap="butt" stroke-miterlimit="10.0"><path d="M 395.8333,230.4688 c 0.0000,-1.4382 -1.1659,-2.6042 -2.6042 -2.6042c -1.4382,-0.0000 -2.6042,1.1659 -2.6042 2.6042c -0.0000,1.4382 1.1659,2.6042 2.6042 2.6042c 1.4382,0.0000 2.6042,-1.1659 2.6042 -2.6042Z"/></g><g stroke-linejoin="miter" stroke-opacity="1.0" fill-opacity="1.0" stroke="rgb(0,0,0)" stroke-width="0.7499999999999998" fill="rgb(255,255,255)" stroke-linecap="butt" stroke-miterlimit="10.0"><path d="M 395.8333,243.4896 c 0.0000,-1.4382 -1.1659,-2.6042 -2.6042 -2.6042c -1.4382,-0.0000 -2.6042,1.1659 -2.6042 2.6042c -0.0000,1.4382 1.1659,2.6042 2.6042 2.6042c 1.4382,0.0000 2.6042,-1.1659 2.6042 -2.6042Z"/></g><g stroke-linejoin="miter" stroke-opacity="1.0" fill-opacity="1.0" stroke="rgb(0,0,0)" stroke-width="0.7499999999999998" fill="rgb(255,255,255)" stroke-linecap="butt" stroke-miterlimit="10.0"><path d="M 395.8333,256.5104 c 0.0000,-1.4382 -1.1659,-2.6042 -2.6042 -2.6042c -1.4382,-0.0000 -2.6042,1.1659 -2.6042 2.6042c -0.0000,1.4382 1.1659,2.6042 2.6042 2.6042c 1.4382,0.0000 2.6042,-1.1659 2.6042 -2.6042Z"/></g><g stroke-linejoin="miter" stroke-opacity="1.0" fill-opacity="1.0" stroke="rgb(0,0,0)" stroke-width="0.7499999999999998" fill="rgb(255,255,255)" stroke-linecap="butt" stroke-miterlimit="10.0"><path d="M 395.8333,269.5312 c 0.0000,-1.4382 -1.1659,-2.6042 -2.6042 -2.6042c -1.4382,-0.0000 -2.6042,1.1659 -2.6042 2.6042c -0.0000,1.4382 1.1659,2.6042 2.6042 2.6042c 1.4382,0.0000 2.6042,-1.1659 2.6042 -2.6042Z"/></g><g stroke-linejoin="miter" stroke-opacity="1.0" fill-opacity="1.0" stroke="rgb(0,0,0)" stroke-width="0.7499999999999998" fill="rgb(255,255,255)" stroke-linecap="butt" stroke-miterlimit="10.0"><path d="M 395.8333,282.5521 c 0.0000,-1.4382 -1.1659,-2.6042 -2.6042 -2.6042c -1.4382,-0.0000 -2.6042,1.1659 -2.6042 2.6042c -0.0000,1.4382 1.1659,2.6042 2.6042 2.6042c 1.4382,0.0000 2.6042,-1.1659 2.6042 -2.6042Z"/></g><g stroke-linejoin="miter" stroke-opacity="1.0" fill-opacity="1.0" stroke="rgb(0,0,0)" stroke-width="0.7499999999999998" fill="rgb(255,255,255)" stroke-linecap="butt" stroke-miterlimit="10.0"><path d="M 369.7917,217.4479 c 0.0000,-1.4382 -1.1659,-2.6042 -2.6042 -2.6042c -1.4382,-0.0000 -2.6042,1.1659 -2.6042 2.6042c -0.0000,1.4382 1.1659,2.6042 2.6042 2.6042c 1.4382,0.0000 2.6042,-1.1659 2.6042 -2.6042Z"/></g><g stroke-linejoin="miter" stroke-opacity="1.0" fill-opacity="1.0" stroke="rgb(0,0,0)" stroke-width="0.7499999999999998" fill="rgb(255,255,255)" stroke-linecap="butt" stroke-miterlimit="10.0"><path d="M 369.7917,230.4688 c 0.0000,-1.4382 -1.1659,-2.6042 -2.6042 -2.6042c -1.4382,-0.0000 -2.6042,1.1659 -2.6042 2.6042c -0.0000,1.4382 1.1659,2.6042 2.6042 2.6042c 1.4382,0.0000 2.6042,-1.1659 2.6042 -2.6042Z"/></g><g stroke-linejoin="miter" stroke-opacity="1.0" fill-opacity="1.0" stroke="rgb(0,0,0)" stroke-width="0.7499999999999998" fill="rgb(255,255,255)" stroke-linecap="butt" stroke-miterlimit="10.0"><path d="M 369.7917,243.4896 c 0.0000,-1.4382 -1.1659,-2.6042 -2.6042 -2.6042c -1.4382,-0.0000 -2.6042,1.1659 -2.6042 2.6042c -0.0000,1.4382 1.1659,2.6042 2.6042 2.6042c 1.4382,0.0000 2.6042,-1.1659 2.6042 -2.6042Z"/></g><g stroke-linejoin="miter" stroke-opacity="1.0" fill-opacity="1.0" stroke="rgb(0,0,0)" stroke-width="0.7499999999999998" fill="rgb(255,255,255)" stroke-linecap="butt" stroke-miterlimit="10.0"><path d="M 369.7917,256.5104 c 0.0000,-1.4382 -1.1659,-2.6042 -2.6042 -2.6042c -1.4382,-0.0000 -2.6042,1.1659 -2.6042 2.6042c -0.0000,1.4382 1.1659,2.6042 2.6042 2.6042c 1.4382,0.0000 2.6042,-1.1659 2.6042 -2.6042Z"/></g><g stroke-linejoin="miter" stroke-opacity="1.0" fill-opacity="1.0" stroke="rgb(0,0,0)" stroke-width="0.7499999999999998" fill="rgb(255,255,255)" stroke-linecap="butt" stroke-miterlimit="10.0"><path d="M 369.7917,269.5312 c 0.0000,-1.4382 -1.1659,-2.6042 -2.6042 -2.6042c -1.4382,-0.0000 -2.6042,1.1659 -2.6042 2.6042c -0.0000,1.4382 1.1659,2.6042 2.6042 2.6042c 1.4382,0.0000 2.6042,-1.1659 2.6042 -2.6042Z"/></g><g stroke-linejoin="miter" stroke-opacity="1.0" fill-opacity="1.0" stroke="rgb(0,0,0)" stroke-width="0.7499999999999998" fill="rgb(255,255,255)" stroke-linecap="butt" stroke-miterlimit="10.0"><path d="M 356.7708,282.5521 c 0.0000,-1.4382 -1.1659,-2.6042 -2.6042 -2.6042c -1.4382,-0.0000 -2.6042,1.1659 -2.6042 2.6042c -0.0000,1.4382 1.1659,2.6042 2.6042 2.6042c 1.4382,0.0000 2.6042,-1.1659 2.6042 -2.6042Z"/></g><g stroke-linejoin="miter" stroke-opacity="1.0" fill-opacity="1.0" stroke="rgb(0,0,0)" stroke-width="0.7499999999999998" fill="rgb(255,255,255)" stroke-linecap="butt" stroke-miterlimit="10.0"><path d="M 343.7500,282.5521 c 0.0000,-1.4382 -1.1659,-2.6042 -2.6042 -2.6042c -1.4382,-0.0000 -2.6042,1.1659 -2.6042 2.6042c -0.0000,1.4382 1.1659,2.6042 2.6042 2.6042c 1.4382,0.0000 2.6042,-1.1659 2.6042 -2.6042Z"/></g><g stroke-linejoin="miter" stroke-opacity="1.0" fill-opacity="1.0" stroke="rgb(0,0,0)" stroke-width="0.7499999999999998" fill="rgb(255,255,255)" stroke-linecap="butt" stroke-miterlimit="10.0"><path d="M 330.7292,217.4479 c 0.0000,-1.4382 -1.1659,-2.6042 -2.6042 -2.6042c -1.4382,-0.0000 -2.6042,1.1659 -2.6042 2.6042c -0.0000,1.4382 1.1659,2.6042 2.6042 2.6042c 1.4382,0.0000 2.6042,-1.1659 2.6042 -2.6042Z"/></g><g stroke-linejoin="miter" stroke-opacity="1.0" fill-opacity="1.0" stroke="rgb(0,0,0)" stroke-width="0.7499999999999998" fill="rgb(255,255,255)" stroke-linecap="butt" stroke-miterlimit="10.0"><path d="M 330.7292,230.4688 c 0.0000,-1.4382 -1.1659,-2.6042 -2.6042 -2.6042c -1.4382,-0.0000 -2.6042,1.1659 -2.6042 2.6042c -0.0000,1.4382 1.1659,2.6042 2.6042 2.6042c 1.4382,0.0000 2.6042,-1.1659 2.6042 -2.6042Z"/></g><g stroke-linejoin="miter" stroke-opacity="1.0" fill-opacity="1.0" stroke="rgb(0,0,0)" stroke-width="0.7499999999999998" fill="rgb(255,255,255)" stroke-linecap="butt" stroke-miterlimit="10.0"><path d="M 330.7292,243.4896 c 0.0000,-1.4382 -1.1659,-2.6042 -2.6042 -2.6042c -1.4382,-0.0000 -2.6042,1.1659 -2.6042 2.6042c -0.0000,1.4382 1.1659,2.6042 2.6042 2.6042c 1.4382,0.0000 2.6042,-1.1659 2.6042 -2.6042Z"/></g><g stroke-linejoin="miter" stroke-opacity="1.0" fill-opacity="1.0" stroke="rgb(0,0,0)" stroke-width="0.7499999999999998" fill="rgb(255,255,255)" stroke-linecap="butt" stroke-miterlimit="10.0"><path d="M 330.7292,256.5104 c 0.0000,-1.4382 -1.1659,-2.6042 -2.6042 -2.6042c -1.4382,-0.0000 -2.6042,1.1659 -2.6042 2.6042c -0.0000,1.4382 1.1659,2.6042 2.6042 2.6042c 1.4382,0.0000 2.6042,-1.1659 2.6042 -2.6042Z"/></g><g stroke-linejoin="miter" stroke-opacity="1.0" fill-opacity="1.0" stroke="rgb(0,0,0)" stroke-width="0.7499999999999998" fill="rgb(255,255,255)" stroke-linecap="butt" stroke-miterlimit="10.0"><path d="M 330.7292,269.5312 c 0.0000,-1.4382 -1.1659,-2.6042 -2.6042 -2.6042c -1.4382,-0.0000 -2.6042,1.1659 -2.6042 2.6042c -0.0000,1.4382 1.1659,2.6042 2.6042 2.6042c 1.4382,0.0000 2.6042,-1.1659 2.6042 -2.6042Z"/></g><g stroke-linejoin="miter" stroke-opacity="1.0" fill-opacity="1.0" stroke="rgb(0,0,0)" stroke-width="0.7499999999999998" fill="rgb(255,255,255)" stroke-linecap="butt" stroke-miterlimit="10.0"><path d="M 304.6875,217.4479 c 0.0000,-1.4382 -1.1659,-2.6042 -2.6042 -2.6042c -1.4382,-0.0000 -2.6042,1.1659 -2.6042 2.6042c -0.0000,1.4382 1.1659,2.6042 2.6042 2.6042c 1.4382,0.0000 2.6042,-1.1659 2.6042 -2.6042Z"/></g><g stroke-linejoin="miter" stroke-opacity="1.0" fill-opacity="1.0" stroke="rgb(0,0,0)" stroke-width="0.7499999999999998" fill="rgb(255,255,255)" stroke-linecap="butt" stroke-miterlimit="10.0"><path d="M 304.6875,230.4688 c 0.0000,-1.4382 -1.1659,-2.6042 -2.6042 -2.6042c -1.4382,-0.0000 -2.6042,1.1659 -2.6042 2.6042c -0.0000,1.4382 1.1659,2.6042 2.6042 2.6042c 1.4382,0.0000 2.6042,-1.1659 2.6042 -2.6042Z"/></g><g stroke-linejoin="miter" stroke-opacity="1.0" fill-opacity="1.0" stroke="rgb(0,0,0)" stroke-width="0.7499999999999998" fill="rgb(255,255,255)" stroke-linecap="butt" stroke-miterlimit="10.0"><path d="M 304.6875,282.5521 c 0.0000,-1.4382 -1.1659,-2.6042 -2.6042 -2.6042c -1.4382,-0.0000 -2.6042,1.1659 -2.6042 2.6042c -0.0000,1.4382 1.1659,2.6042 2.6042 2.6042c 1.4382,0.0000 2.6042,-1.1659 2.6042 -2.6042Z"/></g><g stroke-linejoin="miter" stroke-opacity="1.0" fill-opacity="1.0" stroke="rgb(0,0,0)" stroke-width="0.7499999999999998" fill="rgb(255,255,255)" stroke-linecap="butt" stroke-miterlimit="10.0"><path d="M 291.6667,217.4479 c 0.0000,-1.4382 -1.1659,-2.6042 -2.6042 -2.6042c -1.4382,-0.0000 -2.6042,1.1659 -2.6042 2.6042c -0.0000,1.4382 1.1659,2.6042 2.6042 2.6042c 1.4382,0.0000 2.6042,-1.1659 2.6042 -2.6042Z"/></g><g stroke-linejoin="miter" stroke-opacity="1.0" fill-opacity="1.0" stroke="rgb(0,0,0)" stroke-width="0.7499999999999998" fill="rgb(255,255,255)" stroke-linecap="butt" stroke-miterlimit="10.0"><path d="M 291.6667,243.4896 c 0.0000,-1.4382 -1.1659,-2.6042 -2.6042 -2.6042c -1.4382,-0.0000 -2.6042,1.1659 -2.6042 2.6042c -0.0000,1.4382 1.1659,2.6042 2.6042 2.6042c 1.4382,0.0000 2.6042,-1.1659 2.6042 -2.6042Z"/></g><g stroke-linejoin="miter" stroke-opacity="1.0" fill-opacity="1.0" stroke="rgb(0,0,0)" stroke-width="0.7499999999999998" fill="rgb(255,255,255)" stroke-linecap="butt" stroke-miterlimit="10.0"><path d="M 291.6667,282.5521 c 0.0000,-1.4382 -1.1659,-2.6042 -2.6042 -2.6042c -1.4382,-0.0000 -2.6042,1.1659 -2.6042 2.6042c -0.0000,1.4382 1.1659,2.6042 2.6042 2.6042c 1.4382,0.0000 2.6042,-1.1659 2.6042 -2.6042Z"/></g><g stroke-linejoin="miter" stroke-opacity="1.0" fill-opacity="1.0" stroke="rgb(0,0,0)" stroke-width="0.7499999999999998" fill="rgb(255,255,255)" stroke-linecap="butt" stroke-miterlimit="10.0"><path d="M 278.6458,217.4479 c 0.0000,-1.4382 -1.1659,-2.6042 -2.6042 -2.6042c -1.4382,-0.0000 -2.6042,1.1659 -2.6042 2.6042c -0.0000,1.4382 1.1659,2.6042 2.6042 2.6042c 1.4382,0.0000 2.6042,-1.1659 2.6042 -2.6042Z"/></g><g stroke-linejoin="miter" stroke-opacity="1.0" fill-opacity="1.0" stroke="rgb(0,0,0)" stroke-width="0.7499999999999998" fill="rgb(255,255,255)" stroke-linecap="butt" stroke-miterlimit="10.0"><path d="M 278.6458,256.5104 c 0.0000,-1.4382 -1.1659,-2.6042 -2.6042 -2.6042c -1.4382,-0.0000 -2.6042,1.1659 -2.6042 2.6042c -0.0000,1.4382 1.1659,2.6042 2.6042 2.6042c 1.4382,0.0000 2.6042,-1.1659 2.6042 -2.6042Z"/></g><g stroke-linejoin="miter" stroke-opacity="1.0" fill-opacity="1.0" stroke="rgb(0,0,0)" stroke-width="0.7499999999999998" fill="rgb(255,255,255)" stroke-linecap="butt" stroke-miterlimit="10.0"><path d="M 278.6458,282.5521 c 0.0000,-1.4382 -1.1659,-2.6042 -2.6042 -2.6042c -1.4382,-0.0000 -2.6042,1.1659 -2.6042 2.6042c -0.0000,1.4382 1.1659,2.6042 2.6042 2.6042c 1.4382,0.0000 2.6042,-1.1659 2.6042 -2.6042Z"/></g><g stroke-linejoin="miter" stroke-opacity="1.0" fill-opacity="1.0" stroke="rgb(0,0,0)" stroke-width="0.7499999999999998" fill="rgb(255,255,255)" stroke-linecap="butt" stroke-miterlimit="10.0"><path d="M 265.6250,217.4479 c 0.0000,-1.4382 -1.1659,-2.6042 -2.6042 -2.6042c -1.4382,-0.0000 -2.6042,1.1659 -2.6042 2.6042c -0.0000,1.4382 1.1659,2.6042 2.6042 2.6042c 1.4382,0.0000 2.6042,-1.1659 2.6042 -2.6042Z"/></g><g stroke-linejoin="miter" stroke-opacity="1.0" fill-opacity="1.0" stroke="rgb(0,0,0)" stroke-width="0.7499999999999998" fill="rgb(255,255,255)" stroke-linecap="butt" stroke-miterlimit="10.0"><path d="M 265.6250,269.5312 c 0.0000,-1.4382 -1.1659,-2.6042 -2.6042 -2.6042c -1.4382,-0.0000 -2.6042,1.1659 -2.6042 2.6042c -0.0000,1.4382 1.1659,2.6042 2.6042 2.6042c 1.4382,0.0000 2.6042,-1.1659 2.6042 -2.6042Z"/></g><g stroke-linejoin="miter" stroke-opacity="1.0" fill-opacity="1.0" stroke="rgb(0,0,0)" stroke-width="0.7499999999999998" fill="rgb(255,255,255)" stroke-linecap="butt" stroke-miterlimit="10.0"><path d="M 265.6250,282.5521 c 0.0000,-1.4382 -1.1659,-2.6042 -2.6042 -2.6042c -1.4382,-0.0000 -2.6042,1.1659 -2.6042 2.6042c -0.0000,1.4382 1.1659,2.6042 2.6042 2.6042c 1.4382,0.0000 2.6042,-1.1659 2.6042 -2.6042Z"/></g><g stroke-linejoin="miter" stroke-opacity="1.0" fill-opacity="1.0" stroke="rgb(0,0,0)" stroke-width="0.7499999999999998" fill="rgb(255,255,255)" stroke-linecap="butt" stroke-miterlimit="10.0"><path d="M 239.5833,217.4479 c 0.0000,-1.4382 -1.1659,-2.6042 -2.6042 -2.6042c -1.4382,-0.0000 -2.6042,1.1659 -2.6042 2.6042c -0.0000,1.4382 1.1659,2.6042 2.6042 2.6042c 1.4382,0.0000 2.6042,-1.1659 2.6042 -2.6042Z"/></g><g stroke-linejoin="miter" stroke-opacity="1.0" fill-opacity="1.0" stroke="rgb(0,0,0)" stroke-width="0.7499999999999998" fill="rgb(255,255,255)" stroke-linecap="butt" stroke-miterlimit="10.0"><path d="M 239.5833,230.4688 c 0.0000,-1.4382 -1.1659,-2.6042 -2.6042 -2.6042c -1.4382,-0.0000 -2.6042,1.1659 -2.6042 2.6042c -0.0000,1.4382 1.1659,2.6042 2.6042 2.6042c 1.4382,0.0000 2.6042,-1.1659 2.6042 -2.6042Z"/></g><g stroke-linejoin="miter" stroke-opacity="1.0" fill-opacity="1.0" stroke="rgb(0,0,0)" stroke-width="0.7499999999999998" fill="rgb(255,255,255)" stroke-linecap="butt" stroke-miterlimit="10.0"><path d="M 239.5833,243.4896 c 0.0000,-1.4382 -1.1659,-2.6042 -2.6042 -2.6042c -1.4382,-0.0000 -2.6042,1.1659 -2.6042 2.6042c -0.0000,1.4382 1.1659,2.6042 2.6042 2.6042c 1.4382,0.0000 2.6042,-1.1659 2.6042 -2.6042Z"/></g><g stroke-linejoin="miter" stroke-opacity="1.0" fill-opacity="1.0" stroke="rgb(0,0,0)" stroke-width="0.7499999999999998" fill="rgb(255,255,255)" stroke-linecap="butt" stroke-miterlimit="10.0"><path d="M 239.5833,256.5104 c 0.0000,-1.4382 -1.1659,-2.6042 -2.6042 -2.6042c -1.4382,-0.0000 -2.6042,1.1659 -2.6042 2.6042c -0.0000,1.4382 1.1659,2.6042 2.6042 2.6042c 1.4382,0.0000 2.6042,-1.1659 2.6042 -2.6042Z"/></g><g stroke-linejoin="miter" stroke-opacity="1.0" fill-opacity="1.0" stroke="rgb(0,0,0)" stroke-width="0.7499999999999998" fill="rgb(255,255,255)" stroke-linecap="butt" stroke-miterlimit="10.0"><path d="M 239.5833,269.5312 c 0.0000,-1.4382 -1.1659,-2.6042 -2.6042 -2.6042c -1.4382,-0.0000 -2.6042,1.1659 -2.6042 2.6042c -0.0000,1.4382 1.1659,2.6042 2.6042 2.6042c 1.4382,0.0000 2.6042,-1.1659 2.6042 -2.6042Z"/></g><g stroke-linejoin="miter" stroke-opacity="1.0" fill-opacity="1.0" stroke="rgb(0,0,0)" stroke-width="0.7499999999999998" fill="rgb(255,255,255)" stroke-linecap="butt" stroke-miterlimit="10.0"><path d="M 226.5625,282.5521 c 0.0000,-1.4382 -1.1659,-2.6042 -2.6042 -2.6042c -1.4382,-0.0000 -2.6042,1.1659 -2.6042 2.6042c -0.0000,1.4382 1.1659,2.6042 2.6042 2.6042c 1.4382,0.0000 2.6042,-1.1659 2.6042 -2.6042Z"/></g><g stroke-linejoin="miter" stroke-opacity="1.0" fill-opacity="1.0" stroke="rgb(0,0,0)" stroke-width="0.7499999999999998" fill="rgb(255,255,255)" stroke-linecap="butt" stroke-miterlimit="10.0"><path d="M 213.5417,282.5521 c 0.0000,-1.4382 -1.1659,-2.6042 -2.6042 -2.6042c -1.4382,-0.0000 -2.6042,1.1659 -2.6042 2.6042c -0.0000,1.4382 1.1659,2.6042 2.6042 2.6042c 1.4382,0.0000 2.6042,-1.1659 2.6042 -2.6042Z"/></g><g stroke-linejoin="miter" stroke-opacity="1.0" fill-opacity="1.0" stroke="rgb(0,0,0)" stroke-width="0.7499999999999998" fill="rgb(255,255,255)" stroke-linecap="butt" stroke-miterlimit="10.0"><path d="M 200.5208,217.4479 c 0.0000,-1.4382 -1.1659,-2.6042 -2.6042 -2.6042c -1.4382,-0.0000 -2.6042,1.1659 -2.6042 2.6042c -0.0000,1.4382 1.1659,2.6042 2.6042 2.6042c 1.4382,0.0000 2.6042,-1.1659 2.6042 -2.6042Z"/></g><g stroke-linejoin="miter" stroke-opacity="1.0" fill-opacity="1.0" stroke="rgb(0,0,0)" stroke-width="0.7499999999999998" fill="rgb(255,255,255)" stroke-linecap="butt" stroke-miterlimit="10.0"><path d="M 200.5208,230.4688 c 0.0000,-1.4382 -1.1659,-2.6042 -2.6042 -2.6042c -1.4382,-0.0000 -2.6042,1.1659 -2.6042 2.6042c -0.0000,1.4382 1.1659,2.6042 2.6042 2.6042c 1.4382,0.0000 2.6042,-1.1659 2.6042 -2.6042Z"/></g><g stroke-linejoin="miter" stroke-opacity="1.0" fill-opacity="1.0" stroke="rgb(0,0,0)" stroke-width="0.7499999999999998" fill="rgb(255,255,255)" stroke-linecap="butt" stroke-miterlimit="10.0"><path d="M 200.5208,243.4896 c 0.0000,-1.4382 -1.1659,-2.6042 -2.6042 -2.6042c -1.4382,-0.0000 -2.6042,1.1659 -2.6042 2.6042c -0.0000,1.4382 1.1659,2.6042 2.6042 2.6042c 1.4382,0.0000 2.6042,-1.1659 2.6042 -2.6042Z"/></g><g stroke-linejoin="miter" stroke-opacity="1.0" fill-opacity="1.0" stroke="rgb(0,0,0)" stroke-width="0.7499999999999998" fill="rgb(255,255,255)" stroke-linecap="butt" stroke-miterlimit="10.0"><path d="M 200.5208,256.5104 c 0.0000,-1.4382 -1.1659,-2.6042 -2.6042 -2.6042c -1.4382,-0.0000 -2.6042,1.1659 -2.6042 2.6042c -0.0000,1.4382 1.1659,2.6042 2.6042 2.6042c 1.4382,0.0000 2.6042,-1.1659 2.6042 -2.6042Z"/></g><g stroke-linejoin="miter" stroke-opacity="1.0" fill-opacity="1.0" stroke="rgb(0,0,0)" stroke-width="0.7499999999999998" fill="rgb(255,255,255)" stroke-linecap="butt" stroke-miterlimit="10.0"><path d="M 200.5208,269.5312 c 0.0000,-1.4382 -1.1659,-2.6042 -2.6042 -2.6042c -1.4382,-0.0000 -2.6042,1.1659 -2.6042 2.6042c -0.0000,1.4382 1.1659,2.6042 2.6042 2.6042c 1.4382,0.0000 2.6042,-1.1659 2.6042 -2.6042Z"/></g><g stroke-linejoin="miter" stroke-opacity="1.0" fill-opacity="1.0" stroke="rgb(0,0,0)" stroke-width="0.7499999999999998" fill="rgb(255,255,255)" stroke-linecap="butt" stroke-miterlimit="10.0"><path d="M 174.4792,230.4688 c 0.0000,-1.4382 -1.1659,-2.6042 -2.6042 -2.6042c -1.4382,-0.0000 -2.6042,1.1659 -2.6042 2.6042c -0.0000,1.4382 1.1659,2.6042 2.6042 2.6042c 1.4382,0.0000 2.6042,-1.1659 2.6042 -2.6042Z"/></g><g stroke-linejoin="miter" stroke-opacity="1.0" fill-opacity="1.0" stroke="rgb(0,0,0)" stroke-width="0.7499999999999998" fill="rgb(255,255,255)" stroke-linecap="butt" stroke-miterlimit="10.0"><path d="M 174.4792,243.4896 c 0.0000,-1.4382 -1.1659,-2.6042 -2.6042 -2.6042c -1.4382,-0.0000 -2.6042,1.1659 -2.6042 2.6042c -0.0000,1.4382 1.1659,2.6042 2.6042 2.6042c 1.4382,0.0000 2.6042,-1.1659 2.6042 -2.6042Z"/></g><g stroke-linejoin="miter" stroke-opacity="1.0" fill-opacity="1.0" stroke="rgb(0,0,0)" stroke-width="0.7499999999999998" fill="rgb(255,255,255)" stroke-linecap="butt" stroke-miterlimit="10.0"><path d="M 161.4583,217.4479 c 0.0000,-1.4382 -1.1659,-2.6042 -2.6042 -2.6042c -1.4382,-0.0000 -2.6042,1.1659 -2.6042 2.6042c -0.0000,1.4382 1.1659,2.6042 2.6042 2.6042c 1.4382,0.0000 2.6042,-1.1659 2.6042 -2.6042Z"/></g><g stroke-linejoin="miter" stroke-opacity="1.0" fill-opacity="1.0" stroke="rgb(0,0,0)" stroke-width="0.7499999999999998" fill="rgb(255,255,255)" stroke-linecap="butt" stroke-miterlimit="10.0"><path d="M 161.4583,256.5104 c 0.0000,-1.4382 -1.1659,-2.6042 -2.6042 -2.6042c -1.4382,-0.0000 -2.6042,1.1659 -2.6042 2.6042c -0.0000,1.4382 1.1659,2.6042 2.6042 2.6042c 1.4382,0.0000 2.6042,-1.1659 2.6042 -2.6042Z"/></g><g stroke-linejoin="miter" stroke-opacity="1.0" fill-opacity="1.0" stroke="rgb(0,0,0)" stroke-width="0.7499999999999998" fill="rgb(255,255,255)" stroke-linecap="butt" stroke-miterlimit="10.0"><path d="M 148.4375,217.4479 c 0.0000,-1.4382 -1.1659,-2.6042 -2.6042 -2.6042c -1.4382,-0.0000 -2.6042,1.1659 -2.6042 2.6042c -0.0000,1.4382 1.1659,2.6042 2.6042 2.6042c 1.4382,0.0000 2.6042,-1.1659 2.6042 -2.6042Z"/></g><g stroke-linejoin="miter" stroke-opacity="1.0" fill-opacity="1.0" stroke="rgb(0,0,0)" stroke-width="0.7499999999999998" fill="rgb(255,255,255)" stroke-linecap="butt" stroke-miterlimit="10.0"><path d="M 148.4375,256.5104 c 0.0000,-1.4382 -1.1659,-2.6042 -2.6042 -2.6042c -1.4382,-0.0000 -2.6042,1.1659 -2.6042 2.6042c -0.0000,1.4382 1.1659,2.6042 2.6042 2.6042c 1.4382,0.0000 2.6042,-1.1659 2.6042 -2.6042Z"/></g><g stroke-linejoin="miter" stroke-opacity="1.0" fill-opacity="1.0" stroke="rgb(0,0,0)" stroke-width="0.7499999999999998" fill="rgb(255,255,255)" stroke-linecap="butt" stroke-miterlimit="10.0"><path d="M 135.4167,217.4479 c 0.0000,-1.4382 -1.1659,-2.6042 -2.6042 -2.6042c -1.4382,-0.0000 -2.6042,1.1659 -2.6042 2.6042c -0.0000,1.4382 1.1659,2.6042 2.6042 2.6042c 1.4382,0.0000 2.6042,-1.1659 2.6042 -2.6042Z"/></g><g stroke-linejoin="miter" stroke-opacity="1.0" fill-opacity="1.0" stroke="rgb(0,0,0)" stroke-width="0.7499999999999998" fill="rgb(255,255,255)" stroke-linecap="butt" stroke-miterlimit="10.0"><path d="M 135.4167,230.4688 c 0.0000,-1.4382 -1.1659,-2.6042 -2.6042 -2.6042c -1.4382,-0.0000 -2.6042,1.1659 -2.6042 2.6042c -0.0000,1.4382 1.1659,2.6042 2.6042 2.6042c 1.4382,0.0000 2.6042,-1.1659 2.6042 -2.6042Z"/></g><g stroke-linejoin="miter" stroke-opacity="1.0" fill-opacity="1.0" stroke="rgb(0,0,0)" stroke-width="0.7499999999999998" fill="rgb(255,255,255)" stroke-linecap="butt" stroke-miterlimit="10.0"><path d="M 135.4167,243.4896 c 0.0000,-1.4382 -1.1659,-2.6042 -2.6042 -2.6042c -1.4382,-0.0000 -2.6042,1.1659 -2.6042 2.6042c -0.0000,1.4382 1.1659,2.6042 2.6042 2.6042c 1.4382,0.0000 2.6042,-1.1659 2.6042 -2.6042Z"/></g><g stroke-linejoin="miter" stroke-opacity="1.0" fill-opacity="1.0" stroke="rgb(0,0,0)" stroke-width="0.7499999999999998" fill="rgb(255,255,255)" stroke-linecap="butt" stroke-miterlimit="10.0"><path d="M 135.4167,256.5104 c 0.0000,-1.4382 -1.1659,-2.6042 -2.6042 -2.6042c -1.4382,-0.0000 -2.6042,1.1659 -2.6042 2.6042c -0.0000,1.4382 1.1659,2.6042 2.6042 2.6042c 1.4382,0.0000 2.6042,-1.1659 2.6042 -2.6042Z"/></g><g stroke-linejoin="miter" stroke-opacity="1.0" fill-opacity="1.0" stroke="rgb(0,0,0)" stroke-width="0.7499999999999998" fill="rgb(255,255,255)" stroke-linecap="butt" stroke-miterlimit="10.0"><path d="M 135.4167,269.5312 c 0.0000,-1.4382 -1.1659,-2.6042 -2.6042 -2.6042c -1.4382,-0.0000 -2.6042,1.1659 -2.6042 2.6042c -0.0000,1.4382 1.1659,2.6042 2.6042 2.6042c 1.4382,0.0000 2.6042,-1.1659 2.6042 -2.6042Z"/></g><g stroke-linejoin="miter" stroke-opacity="1.0" fill-opacity="1.0" stroke="rgb(0,0,0)" stroke-width="0.7499999999999998" fill="rgb(255,255,255)" stroke-linecap="butt" stroke-miterlimit="10.0"><path d="M 135.4167,282.5521 c 0.0000,-1.4382 -1.1659,-2.6042 -2.6042 -2.6042c -1.4382,-0.0000 -2.6042,1.1659 -2.6042 2.6042c -0.0000,1.4382 1.1659,2.6042 2.6042 2.6042c 1.4382,0.0000 2.6042,-1.1659 2.6042 -2.6042Z"/></g><g stroke-linejoin="miter" stroke-opacity="1.0" fill-opacity="1.0" stroke="rgb(0,0,0)" stroke-width="0.7499999999999998" fill="rgb(255,255,255)" stroke-linecap="butt" stroke-miterlimit="10.0"><path d="M 109.3750,217.4479 c 0.0000,-1.4382 -1.1659,-2.6042 -2.6042 -2.6042c -1.4382,-0.0000 -2.6042,1.1659 -2.6042 2.6042c -0.0000,1.4382 1.1659,2.6042 2.6042 2.6042c 1.4382,0.0000 2.6042,-1.1659 2.6042 -2.6042Z"/></g><g stroke-linejoin="miter" stroke-opacity="1.0" fill-opacity="1.0" stroke="rgb(0,0,0)" stroke-width="0.7499999999999998" fill="rgb(255,255,255)" stroke-linecap="butt" stroke-miterlimit="10.0"><path d="M 96.3542,217.4479 c 0.0000,-1.4382 -1.1659,-2.6042 -2.6042 -2.6042c -1.4382,-0.0000 -2.6042,1.1659 -2.6042 2.6042c -0.0000,1.4382 1.1659,2.6042 2.6042 2.6042c 1.4382,0.0000 2.6042,-1.1659 2.6042 -2.6042Z"/></g><g stroke-linejoin="miter" stroke-opacity="1.0" fill-opacity="1.0" stroke="rgb(0,0,0)" stroke-width="0.7499999999999998" fill="rgb(255,255,255)" stroke-linecap="butt" stroke-miterlimit="10.0"><path d="M 96.3542,243.4896 c 0.0000,-1.4382 -1.1659,-2.6042 -2.6042 -2.6042c -1.4382,-0.0000 -2.6042,1.1659 -2.6042 2.6042c -0.0000,1.4382 1.1659,2.6042 2.6042 2.6042c 1.4382,0.0000 2.6042,-1.1659 2.6042 -2.6042Z"/></g><g stroke-linejoin="miter" stroke-opacity="1.0" fill-opacity="1.0" stroke="rgb(0,0,0)" stroke-width="0.7499999999999998" fill="rgb(255,255,255)" stroke-linecap="butt" stroke-miterlimit="10.0"><path d="M 83.3333,217.4479 c 0.0000,-1.4382 -1.1659,-2.6042 -2.6042 -2.6042c -1.4382,-0.0000 -2.6042,1.1659 -2.6042 2.6042c -0.0000,1.4382 1.1659,2.6042 2.6042 2.6042c 1.4382,0.0000 2.6042,-1.1659 2.6042 -2.6042Z"/></g><g stroke-linejoin="miter" stroke-opacity="1.0" fill-opacity="1.0" stroke="rgb(0,0,0)" stroke-width="0.7499999999999998" fill="rgb(255,255,255)" stroke-linecap="butt" stroke-miterlimit="10.0"><path d="M 83.3333,243.4896 c 0.0000,-1.4382 -1.1659,-2.6042 -2.6042 -2.6042c -1.4382,-0.0000 -2.6042,1.1659 -2.6042 2.6042c -0.0000,1.4382 1.1659,2.6042 2.6042 2.6042c 1.4382,0.0000 2.6042,-1.1659 2.6042 -2.6042Z"/></g><g stroke-linejoin="miter" stroke-opacity="1.0" fill-opacity="1.0" stroke="rgb(0,0,0)" stroke-width="0.7499999999999998" fill="rgb(255,255,255)" stroke-linecap="butt" stroke-miterlimit="10.0"><path d="M 70.3125,217.4479 c 0.0000,-1.4382 -1.1659,-2.6042 -2.6042 -2.6042c -1.4382,-0.0000 -2.6042,1.1659 -2.6042 2.6042c -0.0000,1.4382 1.1659,2.6042 2.6042 2.6042c 1.4382,0.0000 2.6042,-1.1659 2.6042 -2.6042Z"/></g><g stroke-linejoin="miter" stroke-opacity="1.0" fill-opacity="1.0" stroke="rgb(0,0,0)" stroke-width="0.7499999999999998" fill="rgb(255,255,255)" stroke-linecap="butt" stroke-miterlimit="10.0"><path d="M 70.3125,230.4688 c 0.0000,-1.4382 -1.1659,-2.6042 -2.6042 -2.6042c -1.4382,-0.0000 -2.6042,1.1659 -2.6042 2.6042c -0.0000,1.4382 1.1659,2.6042 2.6042 2.6042c 1.4382,0.0000 2.6042,-1.1659 2.6042 -2.6042Z"/></g><g stroke-linejoin="miter" stroke-opacity="1.0" fill-opacity="1.0" stroke="rgb(0,0,0)" stroke-width="0.7499999999999998" fill="rgb(255,255,255)" stroke-linecap="butt" stroke-miterlimit="10.0"><path d="M 70.3125,243.4896 c 0.0000,-1.4382 -1.1659,-2.6042 -2.6042 -2.6042c -1.4382,-0.0000 -2.6042,1.1659 -2.6042 2.6042c -0.0000,1.4382 1.1659,2.6042 2.6042 2.6042c 1.4382,0.0000 2.6042,-1.1659 2.6042 -2.6042Z"/></g><g stroke-linejoin="miter" stroke-opacity="1.0" fill-opacity="1.0" stroke="rgb(0,0,0)" stroke-width="0.7499999999999998" fill="rgb(255,255,255)" stroke-linecap="butt" stroke-miterlimit="10.0"><path d="M 70.3125,256.5104 c 0.0000,-1.4382 -1.1659,-2.6042 -2.6042 -2.6042c -1.4382,-0.0000 -2.6042,1.1659 -2.6042 2.6042c -0.0000,1.4382 1.1659,2.6042 2.6042 2.6042c 1.4382,0.0000 2.6042,-1.1659 2.6042 -2.6042Z"/></g><g stroke-linejoin="miter" stroke-opacity="1.0" fill-opacity="1.0" stroke="rgb(0,0,0)" stroke-width="0.7499999999999998" fill="rgb(255,255,255)" stroke-linecap="butt" stroke-miterlimit="10.0"><path d="M 70.3125,269.5312 c 0.0000,-1.4382 -1.1659,-2.6042 -2.6042 -2.6042c -1.4382,-0.0000 -2.6042,1.1659 -2.6042 2.6042c -0.0000,1.4382 1.1659,2.6042 2.6042 2.6042c 1.4382,0.0000 2.6042,-1.1659 2.6042 -2.6042Z"/></g><g stroke-linejoin="miter" stroke-opacity="1.0" fill-opacity="1.0" stroke="rgb(0,0,0)" stroke-width="0.7499999999999998" fill="rgb(255,255,255)" stroke-linecap="butt" stroke-miterlimit="10.0"><path d="M 70.3125,282.5521 c 0.0000,-1.4382 -1.1659,-2.6042 -2.6042 -2.6042c -1.4382,-0.0000 -2.6042,1.1659 -2.6042 2.6042c -0.0000,1.4382 1.1659,2.6042 2.6042 2.6042c 1.4382,0.0000 2.6042,-1.1659 2.6042 -2.6042Z"/></g><g stroke-linejoin="miter" stroke-opacity="1.0" fill-opacity="1.0" stroke="rgb(0,0,0)" stroke-width="0.7499999999999998" fill="rgb(255,255,255)" stroke-linecap="butt" stroke-miterlimit="10.0"><path d="M 44.2708,230.4688 c 0.0000,-1.4382 -1.1659,-2.6042 -2.6042 -2.6042c -1.4382,-0.0000 -2.6042,1.1659 -2.6042 2.6042c -0.0000,1.4382 1.1659,2.6042 2.6042 2.6042c 1.4382,0.0000 2.6042,-1.1659 2.6042 -2.6042Z"/></g><g stroke-linejoin="miter" stroke-opacity="1.0" fill-opacity="1.0" stroke="rgb(0,0,0)" stroke-width="0.7499999999999998" fill="rgb(255,255,255)" stroke-linecap="butt" stroke-miterlimit="10.0"><path d="M 44.2708,256.5104 c 0.0000,-1.4382 -1.1659,-2.6042 -2.6042 -2.6042c -1.4382,-0.0000 -2.6042,1.1659 -2.6042 2.6042c -0.0000,1.4382 1.1659,2.6042 2.6042 2.6042c 1.4382,0.0000 2.6042,-1.1659 2.6042 -2.6042Z"/></g><g stroke-linejoin="miter" stroke-opacity="1.0" fill-opacity="1.0" stroke="rgb(0,0,0)" stroke-width="0.7499999999999998" fill="rgb(255,255,255)" stroke-linecap="butt" stroke-miterlimit="10.0"><path d="M 44.2708,269.5312 c 0.0000,-1.4382 -1.1659,-2.6042 -2.6042 -2.6042c -1.4382,-0.0000 -2.6042,1.1659 -2.6042 2.6042c -0.0000,1.4382 1.1659,2.6042 2.6042 2.6042c 1.4382,0.0000 2.6042,-1.1659 2.6042 -2.6042Z"/></g><g stroke-linejoin="miter" stroke-opacity="1.0" fill-opacity="1.0" stroke="rgb(0,0,0)" stroke-width="0.7499999999999998" fill="rgb(255,255,255)" stroke-linecap="butt" stroke-miterlimit="10.0"><path d="M 31.2500,217.4479 c 0.0000,-1.4382 -1.1659,-2.6042 -2.6042 -2.6042c -1.4382,-0.0000 -2.6042,1.1659 -2.6042 2.6042c -0.0000,1.4382 1.1659,2.6042 2.6042 2.6042c 1.4382,0.0000 2.6042,-1.1659 2.6042 -2.6042Z"/></g><g stroke-linejoin="miter" stroke-opacity="1.0" fill-opacity="1.0" stroke="rgb(0,0,0)" stroke-width="0.7499999999999998" fill="rgb(255,255,255)" stroke-linecap="butt" stroke-miterlimit="10.0"><path d="M 31.2500,243.4896 c 0.0000,-1.4382 -1.1659,-2.6042 -2.6042 -2.6042c -1.4382,-0.0000 -2.6042,1.1659 -2.6042 2.6042c -0.0000,1.4382 1.1659,2.6042 2.6042 2.6042c 1.4382,0.0000 2.6042,-1.1659 2.6042 -2.6042Z"/></g><g stroke-linejoin="miter" stroke-opacity="1.0" fill-opacity="1.0" stroke="rgb(0,0,0)" stroke-width="0.7499999999999998" fill="rgb(255,255,255)" stroke-linecap="butt" stroke-miterlimit="10.0"><path d="M 31.2500,282.5521 c 0.0000,-1.4382 -1.1659,-2.6042 -2.6042 -2.6042c -1.4382,-0.0000 -2.6042,1.1659 -2.6042 2.6042c -0.0000,1.4382 1.1659,2.6042 2.6042 2.6042c 1.4382,0.0000 2.6042,-1.1659 2.6042 -2.6042Z"/></g><g stroke-linejoin="miter" stroke-opacity="1.0" fill-opacity="1.0" stroke="rgb(0,0,0)" stroke-width="0.7499999999999998" fill="rgb(255,255,255)" stroke-linecap="butt" stroke-miterlimit="10.0"><path d="M 18.2292,217.4479 c 0.0000,-1.4382 -1.1659,-2.6042 -2.6042 -2.6042c -1.4382,-0.0000 -2.6042,1.1659 -2.6042 2.6042c -0.0000,1.4382 1.1659,2.6042 2.6042 2.6042c 1.4382,0.0000 2.6042,-1.1659 2.6042 -2.6042Z"/></g><g stroke-linejoin="miter" stroke-opacity="1.0" fill-opacity="1.0" stroke="rgb(0,0,0)" stroke-width="0.7499999999999998" fill="rgb(255,255,255)" stroke-linecap="butt" stroke-miterlimit="10.0"><path d="M 18.2292,243.4896 c 0.0000,-1.4382 -1.1659,-2.6042 -2.6042 -2.6042c -1.4382,-0.0000 -2.6042,1.1659 -2.6042 2.6042c -0.0000,1.4382 1.1659,2.6042 2.6042 2.6042c 1.4382,0.0000 2.6042,-1.1659 2.6042 -2.6042Z"/></g><g stroke-linejoin="miter" stroke-opacity="1.0" fill-opacity="1.0" stroke="rgb(0,0,0)" stroke-width="0.7499999999999998" fill="rgb(255,255,255)" stroke-linecap="butt" stroke-miterlimit="10.0"><path d="M 18.2292,282.5521 c 0.0000,-1.4382 -1.1659,-2.6042 -2.6042 -2.6042c -1.4382,-0.0000 -2.6042,1.1659 -2.6042 2.6042c -0.0000,1.4382 1.1659,2.6042 2.6042 2.6042c 1.4382,0.0000 2.6042,-1.1659 2.6042 -2.6042Z"/></g><g stroke-linejoin="miter" stroke-opacity="1.0" fill-opacity="1.0" stroke="rgb(0,0,0)" stroke-width="0.7499999999999998" fill="rgb(255,255,255)" stroke-linecap="butt" stroke-miterlimit="10.0"><path d="M 5.2083,217.4479 c 0.0000,-1.4382 -1.1659,-2.6042 -2.6042 -2.6042c -1.4382,-0.0000 -2.6042,1.1659 -2.6042 2.6042c -0.0000,1.4382 1.1659,2.6042 2.6042 2.6042c 1.4382,0.0000 2.6042,-1.1659 2.6042 -2.6042Z"/></g><g stroke-linejoin="miter" stroke-opacity="1.0" fill-opacity="1.0" stroke="rgb(0,0,0)" stroke-width="0.7499999999999998" fill="rgb(255,255,255)" stroke-linecap="butt" stroke-miterlimit="10.0"><path d="M 5.2083,230.4688 c 0.0000,-1.4382 -1.1659,-2.6042 -2.6042 -2.6042c -1.4382,-0.0000 -2.6042,1.1659 -2.6042 2.6042c -0.0000,1.4382 1.1659,2.6042 2.6042 2.6042c 1.4382,0.0000 2.6042,-1.1659 2.6042 -2.6042Z"/></g><g stroke-linejoin="miter" stroke-opacity="1.0" fill-opacity="1.0" stroke="rgb(0,0,0)" stroke-width="0.7499999999999998" fill="rgb(255,255,255)" stroke-linecap="butt" stroke-miterlimit="10.0"><path d="M 5.2083,243.4896 c 0.0000,-1.4382 -1.1659,-2.6042 -2.6042 -2.6042c -1.4382,-0.0000 -2.6042,1.1659 -2.6042 2.6042c -0.0000,1.4382 1.1659,2.6042 2.6042 2.6042c 1.4382,0.0000 2.6042,-1.1659 2.6042 -2.6042Z"/></g><g stroke-linejoin="miter" stroke-opacity="1.0" fill-opacity="1.0" stroke="rgb(0,0,0)" stroke-width="0.7499999999999998" fill="rgb(255,255,255)" stroke-linecap="butt" stroke-miterlimit="10.0"><path d="M 5.2083,256.5104 c 0.0000,-1.4382 -1.1659,-2.6042 -2.6042 -2.6042c -1.4382,-0.0000 -2.6042,1.1659 -2.6042 2.6042c -0.0000,1.4382 1.1659,2.6042 2.6042 2.6042c 1.4382,0.0000 2.6042,-1.1659 2.6042 -2.6042Z"/></g><g stroke-linejoin="miter" stroke-opacity="1.0" fill-opacity="1.0" stroke="rgb(0,0,0)" stroke-width="0.7499999999999998" fill="rgb(255,255,255)" stroke-linecap="butt" stroke-miterlimit="10.0"><path d="M 5.2083,269.5312 c 0.0000,-1.4382 -1.1659,-2.6042 -2.6042 -2.6042c -1.4382,-0.0000 -2.6042,1.1659 -2.6042 2.6042c -0.0000,1.4382 1.1659,2.6042 2.6042 2.6042c 1.4382,0.0000 2.6042,-1.1659 2.6042 -2.6042Z"/></g><g stroke-linejoin="miter" stroke-opacity="1.0" fill-opacity="1.0" stroke="rgb(0,0,0)" stroke-width="0.7499999999999998" fill="rgb(255,255,255)" stroke-linecap="butt" stroke-miterlimit="10.0"><path d="M 5.2083,282.5521 c 0.0000,-1.4382 -1.1659,-2.6042 -2.6042 -2.6042c -1.4382,-0.0000 -2.6042,1.1659 -2.6042 2.6042c -0.0000,1.4382 1.1659,2.6042 2.6042 2.6042c 1.4382,0.0000 2.6042,-1.1659 2.6042 -2.6042Z"/></g></svg>